<svg xmlns="http://www.w3.org/2000/svg" viewBox="0 0 32 32">
  <defs>
    <linearGradient id="g" x1="0" y1="0" x2="0" y2="1">
      <stop offset="0" stop-color="#F5B37C"/>
      <stop offset="1" stop-color="#E07A3A"/>
    </linearGradient>
  </defs>
  <rect width="32" height="32" rx="8" fill="url(#g)"/>
  <path d="M16 7c4 0 6.8 3.5 6.8 7.3 0 3.2-2.5 5.7-5.5 6-.3.1-.6.2-.6.5v.6c0 .6-.5 1.1-1.1 1.1s-1.1-.5-1.1-1.1v-.6c0-.3-.3-.5-.6-.5-3-.3-5.5-2.8-5.5-6C8.4 10.5 11.4 7 16 7z" fill="#FFFCF7"/>
  <circle cx="19" cy="12.5" r="1" fill="#E07A3A"/>
</svg>
