<svg xmlns="http://www.w3.org/2000/svg" viewBox="0 0 48 48">
  <rect width="48" height="48" fill="#F3EBDB"/>
  <g fill="none" stroke="#1F1B15" stroke-width="2" stroke-linecap="round" stroke-linejoin="round">
    <path d="M10 32 Q8 22 16 18 Q22 15 28 17 Q33 18 36 22 Q40 28 36 34 Q30 39 20 37 Q13 36 10 32 Z"/>
    <path d="M32 19 Q35 13 40 14 Q42 15 41 18 Q40 21 36 21"/>
    <path d="M36 13 Q37 11 38 13 Q39 11 40 13 Q41 11 42 13" stroke="#B4541E"/>
    <circle cx="38" cy="17" r="1.1" fill="#1F1B15" stroke="none"/>
    <path d="M41 18 L43 18.5 L41 19.5 Z" fill="#B4541E" stroke="#B4541E"/>
    <path d="M18 24 Q24 26 28 30"/>
    <path d="M10 30 Q5 26 8 22"/>
  </g>
</svg>
