<svg xmlns="http://www.w3.org/2000/svg" viewBox="0 0 1200 630" width="1200" height="630">
  <defs>
    <linearGradient id="bg" x1="0" y1="0" x2="1" y2="1">
      <stop offset="0" stop-color="#FBF7F0"/>
      <stop offset="1" stop-color="#FFE9D3"/>
    </linearGradient>
    <linearGradient id="logo" x1="0" y1="0" x2="0" y2="1">
      <stop offset="0" stop-color="#F5B37C"/>
      <stop offset="1" stop-color="#E07A3A"/>
    </linearGradient>
  </defs>
  <rect width="1200" height="630" fill="url(#bg)"/>
  <circle cx="980" cy="120" r="220" fill="#FDE4D0" opacity="0.6"/>
  <circle cx="100" cy="540" r="260" fill="#DEEFD9" opacity="0.6"/>

  <g transform="translate(80,110)">
    <rect x="0" y="0" width="72" height="72" rx="18" fill="url(#logo)"/>
    <path d="M36 18c10 0 18 8.4 18 17 0 7-6 12-13 13-.6.1-1.3.5-1.3 1.2v1.3c0 1.4-1.2 2.5-2.5 2.5s-2.5-1.1-2.5-2.5v-1.3c0-.7-.6-1.1-1.3-1.2-7-1-13-6-13-13 0-8.6 7-17 15.6-17Z" fill="#FFFCF7"/>
    <circle cx="42" cy="30" r="2.2" fill="#E07A3A"/>
    <text x="92" y="50" font-family="Georgia, serif" font-weight="700" font-size="44" fill="#2A2420">CoopKeeper</text>
  </g>

  <g transform="translate(80,240)">
    <text font-family="Georgia, serif" font-weight="600" font-size="84" fill="#2A2420">
      <tspan x="0" y="0">Happy hens.</tspan>
      <tspan x="0" y="100">Cleaner coops.</tspan>
      <tspan x="0" y="200">Costs that add up.</tspan>
    </text>
  </g>

  <text x="80" y="585" font-family="Inter, sans-serif" font-weight="500" font-size="28" fill="#5A5A57">
    The calm little dashboard for backyard chicken keepers.
  </text>
</svg>
